<svg id="Capa_1" enable-background="new 0 0 512.002 512.002" height="512" viewBox="0 0 512.002 512.002" width="512" xmlns="http://www.w3.org/2000/svg"><g><path d="m512.002 175.927c0-34.818-18.721-66.596-49.015-83.535-5.471-34.105-35.094-60.247-70.718-60.247-19.524 0-38.12 7.956-51.597 21.948-8.883-3.859-18.571-5.915-28.569-5.915-21.471 0-41.284 9.365-54.796 25.478-31.283-35.218-77.377-53.392-124.699-48.819-37.728 3.651-72.223 21.969-97.13 51.581-24.724 29.395-37.252 66.558-35.275 104.643 3.225 62.14 37.227 127.295 101.061 193.656 50.434 52.431 106.169 91.6 134.903 110.281 2.925 1.902 6.277 2.861 9.638 2.861 2.889 0 5.784-.709 8.417-2.138 5.715-3.101 9.265-9.075 9.265-15.589v-152.06c10.154 10.862 24.593 17.67 40.6 17.67 4.142 0 7.5-3.358 7.5-7.5s-3.358-7.5-7.5-7.5c-22.387 0-40.6-18.213-40.6-40.6v-128.265c0-4.142-3.358-7.5-7.5-7.5s-7.5 3.358-7.5 7.5v318.255c0 1.422-.889 2.117-1.419 2.405-.519.282-1.562.642-2.725-.115-51.955-33.778-222.026-154.672-229.161-292.138-1.779-34.277 9.506-67.734 31.775-94.21 22.366-26.59 53.296-43.035 87.095-46.305 43.755-4.231 86.34 13.163 114.454 46.617l-.018 33.425c-.002 4.142 3.354 7.501 7.496 7.504h.004c4.14 0 7.498-3.355 7.5-7.496l.016-29.178c.107-.149.222-.291.319-.45 10.402-16.915 28.451-27.013 48.28-27.013 17.26 0 33.366 7.729 44.187 21.206 2.593 3.229 7.313 3.746 10.544 1.152 3.229-2.593 3.746-7.314 1.152-10.544-4.047-5.04-8.683-9.439-13.765-13.143 10.367-9.406 23.896-14.705 38.048-14.705 31.228 0 56.633 25.405 56.633 56.633 0 6.722-1.164 13.295-3.458 19.539-1.429 3.888.564 8.198 4.452 9.627.854.314 1.727.462 2.586.462 3.055 0 5.925-1.88 7.041-4.915 2.132-5.8 3.485-11.822 4.059-17.971 20.853 15.052 33.42 39.211 33.42 65.407 0 21.881-8.644 42.327-24 57.427-.922-1.94-1.926-3.844-3.025-5.699-2.109-3.563-6.71-4.742-10.275-2.631-3.564 2.11-4.742 6.711-2.631 10.275 5.145 8.688 7.865 18.651 7.865 28.812 0 22.5-13.245 42.515-33.169 51.565.041-1.151.069-2.305.069-3.466 0-6.701-.697-13.395-2.073-19.896-.857-4.052-4.835-6.644-8.89-5.785-4.052.857-6.642 4.837-5.785 8.89 1.16 5.482 1.748 11.131 1.748 16.791 0 44.489-36.194 80.683-80.683 80.683-3.671 0-7.362-.249-10.971-.739-4.107-.565-7.884 2.317-8.441 6.422-.558 4.104 2.317 7.884 6.422 8.441 4.276.581 8.646.875 12.99.875.169 0 .336-.006.505-.006.001.174.012.349.012.523 0 30.167-20.478 56.048-49.798 62.937-4.032.948-6.533 4.984-5.586 9.017.812 3.456 3.893 5.786 7.295 5.786.568 0 1.145-.065 1.722-.2 17.186-4.038 32.768-13.886 43.875-27.729 11.281-14.061 17.493-31.75 17.493-49.81 0-.59-.026-1.183-.039-1.775 38.769-6.333 69.778-36.043 78.034-74.139 29.767-9.271 50.271-36.906 50.271-68.385 0-5.163-.565-10.284-1.653-15.28 21.481-18.235 33.718-44.551 33.718-72.903z"/><path d="m386.757 211.986c4.142 0 7.5-3.358 7.5-7.5s-3.358-7.5-7.5-7.5c-22.387 0-40.6-18.213-40.6-40.6 0-4.142-3.358-7.5-7.5-7.5s-7.5 3.358-7.5 7.5c0 15.149 6.097 28.895 15.957 38.933-7.807 12.958-10.007 28.392-5.977 43.202.908 3.337 3.932 5.533 7.232 5.533.652 0 1.314-.086 1.974-.265 3.997-1.087 6.355-5.209 5.268-9.206-2.783-10.229-1.488-20.865 3.486-29.997 8.153 4.698 17.594 7.4 27.66 7.4z"/></g></svg>