<?xml version="1.0"?>
<svg xmlns="http://www.w3.org/2000/svg" xmlns:xlink="http://www.w3.org/1999/xlink" xmlns:svgjs="http://svgjs.com/svgjs" version="1.1" width="512" height="512" x="0" y="0" viewBox="0 0 512.174 512.174" style="enable-background:new 0 0 512 512" xml:space="preserve" class=""><g><g xmlns="http://www.w3.org/2000/svg"><path d="m344.831 360.3-34.481-7.663c-3.935-.875-6.682-4.3-6.682-8.33v-29.987c9.964-11.233 16.032-25.997 16.032-42.158v-32.064c0-30.656-24.94-55.597-55.597-55.597h-16.032c-30.656 0-55.597 24.94-55.597 55.597v32.064c0 16.161 6.068 30.925 16.032 42.158v29.987c0 4.03-2.748 7.455-6.682 8.33l-34.482 7.663c-18.242 4.054-30.981 19.936-30.981 38.622v105.708c0 4.142 3.358 7.5 7.5 7.5s7.5-3.358 7.5-7.5v-105.708c0-11.602 7.91-21.462 19.235-23.979l34.482-7.663c10.85-2.412 18.427-11.858 18.427-22.972v-17.536c9.536 5.711 20.679 9.004 32.581 9.004s23.044-3.293 32.581-9.004v17.536c0 11.114 7.578 20.561 18.428 22.972l34.482 7.663c11.326 2.517 19.235 12.378 19.235 23.979v105.708c0 4.142 3.358 7.5 7.5 7.5s7.5-3.358 7.5-7.5v-105.708c.001-18.686-12.739-34.568-30.981-38.622zm-137.357-88.137v-32.064c0-22.385 18.211-40.597 40.597-40.597h16.032c22.385 0 40.597 18.211 40.597 40.597v32.064c0 26.805-21.808 48.613-48.613 48.613s-48.613-21.808-48.613-48.613z" fill="#ffffff" data-original="#000000" style="" class=""/><path d="m480.036 372.765c-20.135-36.396-48.286-76.269-82.096-116.64 34.296-40.954 62.765-81.382 82.917-118.12 33.654-61.351 40.324-104.898 19.289-125.933-21.221-21.221-65.284-14.268-127.424 20.11-58.662 32.454-126.356 85.715-190.612 149.971-20.578 20.578-40.021 41.509-58.022 62.383-33.069-39.687-60.471-78.746-79.858-114.18-28.626-52.321-36.698-92.574-21.595-107.678 11.486-11.485 37.261-9.834 72.577 4.646 37.305 15.296 82.473 43.538 130.623 81.67 3.247 2.571 7.964 2.024 10.536-1.223s2.024-7.964-1.223-10.536c-49.236-38.994-95.657-67.968-134.245-83.79-41.872-17.167-72.604-17.644-88.874-1.373-20.979 20.979-14.395 64.37 19.042 125.483 20.156 36.84 48.722 77.437 83.165 118.568-33.811 40.372-61.962 80.245-82.098 116.641-34.378 62.14-41.332 106.203-20.11 127.424 7.941 7.941 19.235 11.899 33.566 11.898 18.371-.001 41.731-6.507 69.388-19.47 3.751-1.758 5.366-6.223 3.608-9.974s-6.224-5.366-9.974-3.608c-41.77 19.576-73.109 23.42-85.983 10.547-15.312-15.312-6.853-56.268 22.629-109.557 19.366-35.005 46.375-73.364 78.827-112.306 16.669 19.333 34.574 38.716 53.473 57.819 1.467 1.482 3.399 2.225 5.332 2.225 1.906 0 3.813-.722 5.275-2.168 2.944-2.913 2.97-7.662.057-10.606-19.253-19.461-37.457-39.2-54.333-58.858 18.185-21.18 37.901-42.451 58.822-63.372 20.913-20.913 42.177-40.623 63.349-58.802 21.356 18.322 42.658 38.068 63.394 58.802 20.92 20.921 40.637 42.192 58.822 63.372-17.18 20.011-35.734 40.107-55.372 59.907-2.917 2.941-2.897 7.69.044 10.607s7.69 2.897 10.606-.044c19.287-19.446 37.549-39.189 54.527-58.879 32.45 38.941 59.459 77.3 78.825 112.304 29.481 53.289 37.941 94.245 22.629 109.557-12.873 12.873-44.212 9.03-85.983-10.547-3.751-1.758-8.216-.143-9.974 3.608-1.758 3.75-.143 8.216 3.608 9.974 27.66 12.964 51.016 19.47 69.388 19.47 14.329 0 25.626-3.958 33.566-11.898 21.223-21.222 14.27-65.284-20.108-127.424zm-149.971-190.612c-20.411-20.411-41.37-39.884-62.4-58.01 38.946-32.455 77.309-59.468 112.317-78.836 53.289-29.482 94.245-37.94 109.557-22.629 15.152 15.152 6.99 55.568-21.833 108.112-19.384 35.336-46.69 74.233-79.617 113.747-18.001-20.874-37.445-41.805-58.024-62.384z" fill="#ffffff" data-original="#000000" style="" class=""/></g></g></svg>
