<?xml version="1.0"?>
<svg xmlns="http://www.w3.org/2000/svg" xmlns:xlink="http://www.w3.org/1999/xlink" xmlns:svgjs="http://svgjs.com/svgjs" version="1.1" width="512" height="512" x="0" y="0" viewBox="0 0 512 512" style="enable-background:new 0 0 512 512" xml:space="preserve" class=""><g><g xmlns="http://www.w3.org/2000/svg"><path d="m451 30v-30h-390v30h30v183.58c-17.459 6.192-30 22.865-30 42.42s12.541 36.228 30 42.42v183.58h-30v30h390v-30h-30v-183.58c17.459-6.192 30-22.865 30-42.42s-12.541-36.228-30-42.42v-183.58zm-120 76c0 6.003-1.202 14.391-4.061 24.491-47.125 7.053-94.769 7.052-141.893-.002-2.675-9.349-4.046-17.714-4.046-24.489 0-41.906 33.645-76 75-76s75 34.094 75 76zm-75 375.993c-28.95 0-54.103-16.718-66.599-41.117 44.271-6.221 88.928-6.221 133.198 0-12.496 24.399-37.649 41.117-66.599 41.117zm-15-192.943v117.381c-19.957.591-39.899 2.362-59.763 5.313-2.894-38.962 30.589-93.083 59.763-122.694zm89.763 122.694c-19.864-2.951-39.806-4.722-59.763-5.313v-117.461c35.757 36.089 62.255 89.224 59.763 122.774zm-74.763-174.897c-26.114-21.96-45.693-49.248-58.287-74.44 19.387 2.237 38.835 3.383 58.287 3.383 19.482 0 38.964-1.15 58.384-3.395-1.311 2.635-2.709 5.316-4.203 8.04-10.045 18.309-27.318 43.908-54.181 66.412zm-150 4.153c8.271 0 15 6.729 15 15s-6.729 15-15 15-15-6.729-15-15 6.729-15 15-15zm15 57.42c17.459-6.192 30-22.865 30-42.42s-12.541-36.228-30-42.42v-183.58h61.886c-19.653 19.274-31.886 46.22-31.886 76 0 21.718 8.947 50.477 24.547 78.903 10.757 19.602 28.891 46.625 56.703 71.093-27.812 24.468-45.946 51.491-56.703 71.093-15.6 28.427-24.547 57.186-24.547 78.904 0 29.784 12.236 56.733 31.893 76.007h-61.893zm285-27.42c-8.271 0-15-6.729-15-15s6.729-15 15-15 15 6.729 15 15-6.729 15-15 15zm-15-57.42c-17.459 6.192-30 22.865-30 42.42s12.541 36.228 30 42.42v183.58h-61.893c19.657-19.275 31.893-46.224 31.893-76.007 0-21.72-8.936-50.465-24.518-78.865-10.755-19.603-28.896-46.636-56.749-71.131 27.853-24.496 45.994-51.528 56.749-71.131 15.582-28.401 24.518-57.146 24.518-78.866 0-29.78-12.233-56.726-31.886-76h61.886z" fill="#571010" data-original="#000000" style=""/></g></g></svg>
