<svg height="512pt" viewBox="0 -11 512.00013 512" width="512pt" xmlns="http://www.w3.org/2000/svg" style="width: 100%; height: 100%;"><path class="path" d="m497.828125 244.4375c-10.34375-10.339844-24.234375-15.007812-37.792969-14.03125l-9.574218-8.679688c-7.613282-7.515624-17.6875-11.652343-28.398438-11.652343-10.800781 0-20.953125 4.203125-28.589844 11.839843l-58.96875 58.96875h-240.492187c-20.082031 0-36.886719 14.390626-39.953125 34.210938-.078125.511719-.117188 1.03125-.117188 1.550781v3.195313h-5.472656c-26.726562 0-48.46875 21.742187-48.46875 48.46875 0 22.894531 15.960938 42.117187 37.335938 47.164062v29.339844c0 5.59375 4.535156 10.132812 10.128906 10.132812h14.402344l-13.273438 20.234376c-3.066406 4.675781-1.765625 10.953124 2.914062 14.023437 1.710938 1.125 3.640626 1.664063 5.546876 1.664063 3.296874 0 6.53125-1.609376 8.476562-4.574219l20.566406-31.347657h267.765625l20.566407 31.347657c1.945312 2.964843 5.179687 4.574219 8.476562 4.574219 1.90625 0 3.835938-.539063 5.546875-1.664063 4.679687-3.066406 5.984375-9.347656 2.914063-14.023437l-13.273438-20.234376h11.183594c5.59375 0 10.128906-4.539062 10.128906-10.132812v-33.40625l98.421875-98.425781c18.894531-18.898438 18.894531-49.644531 0-68.542969zm-423.628906 73.066406c1.792969-9.375 10.1875-16.359375 19.8125-16.359375h244.6875c2.6875 0 5.261719-1.070312 7.164062-2.96875l61.9375-61.933593c3.808594-3.8125 8.875-5.910157 14.261719-5.910157s10.453125 2.097657 14.261719 5.90625c.117187.117188.238281.234375.359375.347657l1.160156 1.050781c-3.039062 1.902343-5.921875 4.160156-8.5625 6.800781l-75.402344 75.402344h-279.679687zm304.945312 117.179688h-19.671875c-.015625 0-.027344 0-.039062 0h-301.839844v-17.90625h321.550781zm104.359375-136.027344-97.863281 97.863281h-337.171875c-15.554688 0-28.210938-12.65625-28.210938-28.210937 0-15.554688 12.65625-28.210938 28.210938-28.210938h309.605469c2.6875 0 5.261719-1.066406 7.164062-2.964844l78.367188-78.371093c11-10.996094 28.894531-11 39.898437 0 10.996094 11 10.996094 28.898437 0 39.894531zm0 0" style="fill: rgb(255, 255, 255); stroke: rgb(255, 255, 255);"></path><path class="path" d="m428.796875 296.894531-42.113281 42.109375c-3.953125 3.957032-3.953125 10.367188 0 14.324219 1.980468 1.976563 4.570312 2.96875 7.164062 2.96875 2.589844 0 5.183594-.992187 7.160156-2.96875l42.113282-42.109375c3.953125-3.957031 3.953125-10.367188 0-14.324219-3.957032-3.957031-10.371094-3.957031-14.324219 0zm0 0" style="fill: rgb(255, 255, 255); stroke: rgb(255, 255, 255);"></path><path class="path" d="m474.175781 273.136719c-1.28125-5.445313-6.730469-8.828125-12.175781-7.542969-5.445312 1.28125-8.824219 6.734375-7.542969 12.179688l.09375.394531c1.09375 4.664062 5.253907 7.8125 9.851563 7.8125.765625 0 1.546875-.085938 2.324218-.269531 5.445313-1.28125 8.824219-6.734376 7.542969-12.179688zm0 0" style="fill: rgb(255, 255, 255); stroke: rgb(255, 255, 255);"></path><path class="path" d="m356.035156 359.1875h-308.570312c-5.59375 0-10.128906 4.535156-10.128906 10.128906s4.535156 10.128906 10.128906 10.128906h308.570312c5.59375 0 10.128906-4.535156 10.128906-10.128906s-4.535156-10.128906-10.128906-10.128906zm0 0" style="fill: rgb(255, 255, 255); stroke: rgb(255, 255, 255);"></path><path class="path" d="m173.886719 212.332031h134.539062c5.589844 0 10.128907-4.535156 10.128907-10.128906v-159.660156c0-5.59375-4.539063-10.128907-10.128907-10.128907h-28.699219v-22.285156c0-5.59375-4.539062-10.128906-10.132812-10.128906h-55.355469c-5.59375 0-10.128906 4.535156-10.128906 10.128906v22.285156h-30.222656c-5.59375 0-10.128907 4.535157-10.128907 10.128907v159.660156c0 5.59375 4.535157 10.128906 10.128907 10.128906zm50.480469-192.074219h35.097656v21.558594c-.015625.242188-.035156.480469-.035156.726563 0 .242187.019531.484375.035156.722656v12.09375h-35.097656zm-40.351563 32.414063h20.09375v12.816406c0 5.59375 4.535156 10.128907 10.128906 10.128907h55.355469c5.59375 0 10.132812-4.535157 10.132812-10.128907v-12.816406h18.570313v139.402344h-114.28125zm0 0" style="fill: rgb(255, 255, 255); stroke: rgb(255, 255, 255);"></path><path class="path" d="m271.035156 90.65625h-58.238281c-5.59375 0-10.128906 4.535156-10.128906 10.128906 0 5.589844 4.535156 10.128906 10.128906 10.128906h58.238281c5.59375 0 10.132813-4.539062 10.132813-10.128906 0-5.59375-4.539063-10.128906-10.132813-10.128906zm0 0" style="fill: rgb(255, 255, 255); stroke: rgb(255, 255, 255);"></path><path class="path" d="m271.035156 121.546875h-58.238281c-5.59375 0-10.128906 4.535156-10.128906 10.128906s4.535156 10.128907 10.128906 10.128907h58.238281c5.59375 0 10.132813-4.535157 10.132813-10.128907s-4.539063-10.128906-10.132813-10.128906zm0 0" style="fill: rgb(255, 255, 255); stroke: rgb(255, 255, 255);"></path><path class="path" d="m271.035156 152.441406h-58.238281c-5.59375 0-10.128906 4.535156-10.128906 10.128906s4.535156 10.128907 10.128906 10.128907h58.238281c5.59375 0 10.132813-4.535157 10.132813-10.128907s-4.539063-10.128906-10.132813-10.128906zm0 0" style="fill: rgb(255, 255, 255); stroke: rgb(255, 255, 255);"></path></svg>