<svg height="512pt" viewBox="0 0 512 512.00034" width="512pt" xmlns="http://www.w3.org/2000/svg" style="width: 100%; height: 100%;">
<path class="white" d="m486.398438 110.933594h-8.53125v-18.773438c.066406-8.039062-5.523438-15.015625-13.382813-16.703125-27.558594-5.980469-55.433594-10.386719-83.496094-13.199219-3.59375-4.054687-7.902343-7.410156-12.714843-9.902343-1.347657-23.15625-20.851563-41.046875-44.039063-40.398438-1.890625 0-3.777344.117188-5.65625.351563-8.460937-8.40625-20.078125-12.855469-31.996094-12.2539065-11.914062.6054685-23.023437 6.2031245-30.59375 15.4218745-7.96875-9.824218-19.957031-15.5156245-32.605469-15.476562-11.222656-.0390625-22 4.390625-29.953124 12.308594-1.875-.234375-3.769532-.351563-5.660157-.355469-23.1875-.648437-42.691406 17.242187-44.042969 40.398437-4.808593 2.492188-9.121093 5.851563-12.714843 9.90625-28.0625 2.808594-55.941407 7.214844-83.5 13.199219-7.859375 1.6875-13.449219 8.667969-13.378907 16.703125v18.773438h-8.53125c-14.132812.015625-25.585937 11.46875-25.601562 25.601562v332.796875c.015625 14.132813 11.46875 25.585938 25.601562 25.601563h180.660157c2.265625-.007813 4.441406.894531 6.039062 2.5l7.066407 7.066406c4.789062 4.820312 11.308593 7.519531 18.105468 7.5h37.058594c6.792969.019531 13.3125-2.679688 18.101562-7.5l7.066407-7.066406c1.597656-1.605469 3.773437-2.507813 6.039062-2.5h180.660157c14.132812-.015625 25.585937-11.46875 25.601562-25.601563v-332.796875c-.015625-14.132812-11.46875-25.585937-25.601562-25.601562zm-302.667969-81.546875c-.800781 2.949219-1.222657 5.984375-1.257813 9.039062 0 4.710938 3.820313 8.53125 8.53125 8.53125 4.714844 0 8.535156-3.820312 8.535156-8.53125.019532-4.242187 1.402344-8.367187 3.945313-11.761719 4.753906-6.148437 12.125-9.703124 19.898437-9.597656 10.917969-.382812 20.640626 6.847656 23.425782 17.410156.292968 1.292969.433594 2.621094.417968 3.949219 0 4.710938 3.820313 8.53125 8.53125 8.53125.085938 0 .15625-.042969.242188-.046875s.15625.046875.242188.046875c4.710937 0 8.53125-3.820312 8.53125-8.53125-.011719-1.382812.140624-2.757812.453124-4.105469 2.832032-10.492187 12.527344-17.648437 23.390626-17.253906 7.757812-.109375 15.113281 3.429688 19.871093 9.558594 2.558594 3.402344 3.949219 7.542969 3.972657 11.800781 0 4.710938 3.820312 8.53125 8.535156 8.53125 4.710937 0 8.535156-3.820312 8.535156-8.53125-.039062-3.054687-.460938-6.089843-1.261719-9.039062 12.59375 1.117187 22.433594 11.355469 23.046875 23.984375 0 1.105468-.101562 2.210937-.300781 3.300781-1.082031 6.804687-5.070313 12.800781-10.929687 16.425781-2.621094 1.621094-4.164063 4.535156-4.03125 7.613282.128906 3.082031 1.910156 5.851562 4.660156 7.246093 2.75 1.398438 6.039062 1.203125 8.601562-.511719 6.613282-4.226562 11.902344-10.230468 15.265625-17.320312 8.289063 6.941406 12.953125 17.285156 12.675781 28.09375-.023437 2.125-.195312 4.246094-.515624 6.34375-.039063.277344.0625.527344.050781.796875-.074219 1.105469.089843 2.210937.480469 3.242187.359374 1.027344.925781 1.96875 1.664062 2.769532.742188.839844 1.65625 1.511718 2.679688 1.96875.285156.1875.582031.359375.890624.507812 12.136719 3.988282 20.617188 18.449219 20.617188 35.171875.042969 6.210938-1.226562 12.359375-3.730469 18.042969-.09375.21875-.175781.433594-.253906.660156-2.375 5.671875-6.359375 10.523438-11.464844 13.953125-2.589843 1.621094-4.113281 4.503907-3.996093 7.554688.117187 3.054687 1.859374 5.8125 4.5625 7.230469 2.703124 1.421874 5.960937 1.285156 8.539062-.351563 3.800781-2.429687 7.207031-5.429687 10.097656-8.886719 1.808594 5 2.730469 10.28125 2.722656 15.597656.253907 10.832032-3.757812 21.332032-11.167968 29.238282l-.058594.058594c-.894531.921874-1.566406 2.042968-1.953125 3.269531-.035156.09375-.128906.160156-.160156.253906l-7.925781 25.648437c-2.316407 7.203126-7.066407 13.371094-13.4375 17.457032l-27.15625 17.882812c-4.351563 2.925782-8.265626 6.453125-11.621094 10.480469l-10.132813 12.464844c-2.769531 3.433593-6.179687 6.296875-10.042969 8.433593-12.558593 6.683594-27.734374 6.128907-39.773437-1.445312l-11.636719-7.6875v-29.183594c0-4.710937-3.820312-8.53125-8.535156-8.53125-4.710938 0-8.53125 3.820313-8.53125 8.53125v29.183594l-11.648438 7.695312c-12.023437 7.550782-27.160156 8.109376-39.707031 1.472657-3.894531-2.152344-7.335937-5.039063-10.128906-8.5l-10.199219-12.546875c-3.339844-3.992188-7.230468-7.488282-11.558594-10.386719l-27.132812-17.871094c-6.347656-4.109375-11.089844-10.269531-13.433594-17.457031l-7.917968-25.632812c-.070313-.222657-.210938-.417969-.296876-.636719-.078124-.195313-.171874-.371094-.257812-.558594-.375-.765625-.859375-1.476563-1.441406-2.101563-.097656-.109374-.132813-.25-.238282-.351562-7.375-7.898438-11.363281-18.375-11.109374-29.179688-.007813-5.320312.914062-10.601562 2.726562-15.601562 2.890625 3.460938 6.296875 6.457031 10.09375 8.890625 3.984375 2.496094 9.238281 1.300781 11.746094-2.679687 2.511718-3.976563 1.328125-9.234376-2.640625-11.753907-5.09375-3.425781-9.074219-8.269531-11.449219-13.929687-.058594-.171875-.125-.335938-.195312-.5l-.015626-.039063-.054687-.144531c-2.503906-5.683594-3.777344-11.835938-3.734375-18.046875 0-16.722656 8.480469-31.183594 20.617188-35.167969.308593-.152344.605468-.320312.890624-.507812 1.429688-.667969 2.644532-1.71875 3.507813-3.039063.34375-.53125.621094-1.101562.835937-1.699219.390626-1.035156.554688-2.140624.484376-3.242187-.015626-.273437.082031-.523437.046874-.796875-.320312-2.101562-.492187-4.21875-.515624-6.34375-.277344-10.8125 4.398437-21.164062 12.695312-28.105469 3.351562 7.097657 8.632812 13.105469 15.246094 17.335938 3.957031 2.453125 9.152344 1.277343 11.671875-2.636719 2.519531-3.917969 1.433593-9.128906-2.4375-11.714844-5.941407-3.699218-9.957031-9.828125-10.980469-16.75-.171875-.984375-.257812-1.980468-.253906-2.976562.613281-12.628906 10.453125-22.867188 23.046875-23.984375zm-63.121094 51.117187c-1.921875 5.707032-2.914063 11.691406-2.933594 17.714844 0 .785156.066407 1.476562.101563 2.226562-16.753906 10.347657-26.667969 28.890626-25.96875 48.574219-.003906 6.960938 1.171875 13.875 3.480468 20.445313-6.570312 9.878906-10.035156 21.492187-9.957031 33.355468-.210937 14.539063 5.003907 28.636719 14.621094 39.542969l7.410156 23.992188c3.519531 10.953125 10.707031 20.359375 20.34375 26.636719l27.09375 17.847656c2.929688 1.964844 5.566407 4.332031 7.835938 7.035156l10.078125 12.398438c4.179687 5.179687 9.324218 9.492187 15.148437 12.710937 8.277344 4.511719 17.550781 6.878906 26.980469 6.882813 10.800781.035156 21.375-3.117188 30.394531-9.0625l10.761719-7.109376 10.753906 7.101563c9.019532 5.953125 19.597656 9.109375 30.402344 9.070313 9.449219-.003907 18.75-2.378907 27.039062-6.914063 5.789063-3.199219 10.90625-7.492187 15.0625-12.640625l10.011719-12.324219c2.285157-2.738281 4.945313-5.136719 7.898438-7.128906l27.117187-17.863281c9.675782-6.261719 16.875-15.695313 20.367188-26.679688l7.371094-23.863281c9.65625-10.917969 14.882812-25.054687 14.644531-39.632813.082031-11.863281-3.382813-23.480468-9.949219-33.363281 2.304688-6.570312 3.480469-13.484375 3.472656-20.445312.699219-19.679688-9.214844-38.222657-25.96875-48.574219.03125-.746094.101563-1.4375.101563-2.222656-.019531-6.027344-1.011719-12.007813-2.929688-17.71875 28.925781 3.359375 55.195313 8.542968 69.40625 11.65625l.003907 27.289062-.003907.027344.003907.019531.054687 322.125c-47.25-10.003906-155.601563-28.367187-196.324219 2.871094v-77.550781c0-4.710938-3.820312-8.535156-8.535156-8.535156-4.710938 0-8.53125 3.824218-8.53125 8.535156v77.207031c-41.546875-30.761719-149.246094-12.5-196.269531-2.539063l-.0625-321.8125c.003906-.113281.0625-.207031.0625-.320312 0-.117188-.058594-.210938-.0625-.324219l-.007813-27.007812c14.265625-3.09375 40.539063-8.277344 69.480469-11.636719zm374.324219 388.828125c-.003906 4.710938-3.824219 8.53125-8.535156 8.535157h-180.660157c-6.796875-.019532-13.316406 2.679687-18.105469 7.5l-7.066406 7.066406c-1.597656 1.605468-3.769531 2.507812-6.035156 2.5h-37.058594c-2.265625.007812-4.441406-.894532-6.039062-2.5l-7.066406-7.066406c-4.789063-4.820313-11.308594-7.519532-18.105469-7.5h-180.660157c-4.710937-.007813-8.527343-3.824219-8.535156-8.535157v-332.796875c.007813-4.710937 3.824219-8.527344 8.535156-8.535156h8.53125v313.601562c-.019531 5.214844 2.347657 10.15625 6.425782 13.410157 3.957031 3.195312 9.15625 4.410156 14.121094 3.300781 76.761718-16.257812 166.46875-23.570312 188.023437 4.636719 3.175781 4.113281 8.074219 6.527343 13.269531 6.535156 5.195313.007813 10.101563-2.390625 13.289063-6.492187 21.601562-28.257813 111.3125-20.949219 187.945312-4.703126 4.996094 1.140626 10.242188-.066406 14.234375-3.277343 4.078125-3.253907 6.445313-8.195313 6.425782-13.410157v-313.601562h8.53125c4.710937.003906 8.53125 3.824219 8.535156 8.535156zm0 0" style="fill: rgb(255, 255, 255); stroke: rgb(255, 255, 255);"></path>
<path class="white" d="m223.460938 298.128906c-2.585938 1.097656-5.515626 1.058594-8.074219-.109375-2.558594-1.164062-4.507813-3.351562-5.375-6.027343-7.410157-21.25-38.914063-27.835938-42.488281-28.519532-4.628907-.890625-9.097657 2.144532-9.988282 6.769532-.886718 4.628906 2.144532 9.101562 6.773438 9.992187 6.550781 1.277344 26.039062 7.199219 29.585937 17.382813 3.476563 11.121093 13.949219 18.550781 25.59375 18.15625 3.078125.011718 6.140625-.449219 9.078125-1.363282 4.425782-1.460937 6.863282-6.207031 5.46875-10.65625-1.394531-4.449218-6.101562-6.953125-10.574218-5.628906zm0 0" style="fill: rgb(255, 255, 255); stroke: rgb(255, 255, 255);"></path>
<path class="white" d="m344.476562 263.472656c-3.574218.679688-35.074218 7.273438-42.488281 28.519532-.855469 2.664062-2.789062 4.847656-5.332031 6.019531s-5.457031 1.222656-8.039062.140625c-4.464844-1.355469-9.191407 1.128906-10.609376 5.574218-1.417968 4.445313 1 9.207032 5.425782 10.6875 2.9375.914063 6 1.375 9.078125 1.363282 11.644531.394531 22.117187-7.035156 25.59375-18.15625 3.546875-10.183594 23.039062-16.109375 29.585937-17.386719 4.628906-.886719 7.660156-5.359375 6.773438-9.988281-.886719-4.628906-5.359375-7.660156-9.988282-6.773438zm0 0" style="fill: rgb(255, 255, 255); stroke: rgb(255, 255, 255);"></path>
<path class="white" d="m177.621094 239.078125c0-4.710937-3.820313-8.53125-8.535156-8.53125-7.1875-.214844-13.523438-4.789063-15.980469-11.550781-1.570313-4.445313-6.445313-6.773438-10.890625-5.207032-4.445313 1.570313-6.777344 6.445313-5.207032 10.890626 4.933594 13.535156 17.675782 22.644531 32.078126 22.933593 4.714843 0 8.535156-3.820312 8.535156-8.535156zm0 0" style="fill: rgb(255, 255, 255); stroke: rgb(255, 255, 255);"></path>
<path class="white" d="m334.378906 239.078125c0 4.714844 3.820313 8.535156 8.535156 8.535156 14.398438-.289062 27.144532-9.398437 32.078126-22.929687 1.550781-4.449219-.796876-9.316406-5.246094-10.871094-4.449219-1.554688-9.316406.792969-10.871094 5.246094-2.511719 6.703125-8.808594 11.234375-15.960938 11.492187-4.710937 0-8.53125 3.816407-8.535156 8.527344zm0 0" style="fill: rgb(255, 255, 255); stroke: rgb(255, 255, 255);"></path>
<path class="white" d="m162.132812 170.667969c.519532 19.296875 13.097657 36.195312 31.433594 42.226562 7.1875 2.277344 14.566406 3.886719 22.046875 4.8125 13.667969 2.015625 14.785157 2.175781 14.785157 12.691407 0 4.714843 3.820312 8.535156 8.535156 8.535156 4.710937 0 8.535156-3.820313 8.535156-8.535156 0-25.253907-15.605469-27.546876-29.367188-29.574219-6.492187-.789063-12.894531-2.167969-19.136718-4.121094-11.378906-3.726563-19.257813-14.125-19.765625-26.089844-.015625-4.714843-3.847657-8.519531-8.558594-8.507812-4.714844.015625-8.523437 3.847656-8.507813 8.5625zm0 0" style="fill: rgb(255, 255, 255); stroke: rgb(255, 255, 255);"></path>
<path class="white" d="m213.304688 76.800781c.171874 0 17.09375.476563 17.09375 8.53125 0 4.714844 3.820312 8.535157 8.535156 8.535157 4.710937 0 8.535156-3.820313 8.535156-8.535157 0-20.25-22.332031-25.597656-34.136719-25.597656-4.710937-.007813-8.539062 3.804687-8.546875 8.519531-.007812 4.710938 3.804688 8.539063 8.519532 8.546875zm0 0" style="fill: rgb(255, 255, 255); stroke: rgb(255, 255, 255);"></path>
<path class="white" d="m273.066406 238.933594c4.714844 0 8.535156-3.820313 8.535156-8.535156 0-10.515626 1.117188-10.675782 14.785157-12.691407 7.480469-.925781 14.859375-2.535156 22.046875-4.8125 18.339844-6.03125 30.914062-22.929687 31.433594-42.226562-.003907-4.679688-3.785157-8.480469-8.46875-8.5h-.066407c-4.667969.015625-8.464843 3.769531-8.53125 8.4375-.503906 11.96875-8.382812 22.371093-19.765625 26.097656-6.242187 1.953125-12.644531 3.332031-19.136718 4.121094-13.761719 2.027343-29.363282 4.320312-29.363282 29.574219 0 4.714843 3.820313 8.535156 8.53125 8.535156zm0 0" style="fill: rgb(255, 255, 255); stroke: rgb(255, 255, 255);"></path>
<path class="white" d="m273.066406 93.867188c4.714844 0 8.535156-3.820313 8.535156-8.535157 0-8.019531 16.765626-8.527343 17.089844-8.53125 4.714844-.007812 8.527344-3.832031 8.519532-8.546875-.003907-4.710937-3.832032-8.527344-8.542969-8.519531-11.804688 0-34.132813 5.347656-34.132813 25.597656 0 4.714844 3.820313 8.535157 8.53125 8.535157zm0 0" style="fill: rgb(255, 255, 255); stroke: rgb(255, 255, 255);"></path>
<path class="white" d="m213.332031 170.667969c11.804688 0 34.136719-5.351563 34.136719-25.601563 0-4.710937-3.824219-8.53125-8.535156-8.53125-4.714844 0-8.535156 3.820313-8.535156 8.53125 0 8.023438-16.765626 8.535156-17.089844 8.535156-4.710938.003907-8.527344 3.832032-8.519532 8.542969.003907 4.714844 3.832032 8.527344 8.542969 8.523438zm0 0" style="fill: rgb(255, 255, 255); stroke: rgb(255, 255, 255);"></path>
<path class="white" d="m298.667969 170.667969c4.710937.007812 8.539062-3.808594 8.546875-8.519531.007812-4.714844-3.804688-8.539063-8.519532-8.546876-.171874 0-17.09375-.476562-17.09375-8.535156 0-4.710937-3.820312-8.53125-8.535156-8.53125-4.710937 0-8.53125 3.820313-8.53125 8.53125 0 20.25 22.328125 25.601563 34.132813 25.601563zm0 0" style="fill: rgb(255, 255, 255); stroke: rgb(255, 255, 255);"></path>
<path class="white" d="m76.800781 341.332031h8.53125c4.714844 0 8.535157-3.820312 8.535157-8.53125 0-4.714843-3.820313-8.535156-8.535157-8.535156h-8.53125c-4.714843 0-8.535156 3.820313-8.535156 8.535156 0 4.710938 3.820313 8.53125 8.535156 8.53125zm0 0" style="fill: rgb(255, 255, 255); stroke: rgb(255, 255, 255);"></path>
<path class="white" d="m119.46875 341.332031h25.597656c4.714844 0 8.535156-3.820312 8.535156-8.53125 0-4.714843-3.820312-8.535156-8.535156-8.535156h-25.597656c-4.714844 0-8.535156 3.820313-8.535156 8.535156 0 4.710938 3.820312 8.53125 8.535156 8.53125zm0 0" style="fill: rgb(255, 255, 255); stroke: rgb(255, 255, 255);"></path>
<path class="white" d="m76.800781 375.46875h51.199219c4.714844 0 8.535156-3.824219 8.535156-8.535156 0-4.710938-3.820312-8.535156-8.535156-8.535156h-51.199219c-4.714843 0-8.535156 3.824218-8.535156 8.535156 0 4.710937 3.820313 8.535156 8.535156 8.535156zm0 0" style="fill: rgb(255, 255, 255); stroke: rgb(255, 255, 255);"></path>
<path class="white" d="m162.132812 375.46875h25.601563c4.710937 0 8.53125-3.824219 8.53125-8.535156 0-4.710938-3.820313-8.535156-8.53125-8.535156h-25.601563c-4.710937 0-8.53125 3.824218-8.53125 8.535156 0 4.710937 3.820313 8.535156 8.53125 8.535156zm0 0" style="fill: rgb(255, 255, 255); stroke: rgb(255, 255, 255);"></path>
<path class="white" d="m76.800781 409.601562h17.066407c4.710937 0 8.53125-3.820312 8.53125-8.535156 0-4.710937-3.820313-8.53125-8.53125-8.53125h-17.066407c-4.714843 0-8.535156 3.820313-8.535156 8.53125 0 4.714844 3.820313 8.535156 8.535156 8.535156zm0 0" style="fill: rgb(255, 255, 255); stroke: rgb(255, 255, 255);"></path>
<path class="white" d="m119.46875 401.066406c0 4.714844 3.820312 8.535156 8.53125 8.535156h85.332031c4.714844 0 8.535157-3.820312 8.535157-8.535156 0-4.710937-3.820313-8.53125-8.535157-8.53125h-85.332031c-4.710938 0-8.53125 3.820313-8.53125 8.53125zm0 0" style="fill: rgb(255, 255, 255); stroke: rgb(255, 255, 255);"></path>
<path class="white" d="m426.667969 341.332031h8.53125c4.714843 0 8.535156-3.820312 8.535156-8.53125 0-4.714843-3.820313-8.535156-8.535156-8.535156h-8.53125c-4.714844 0-8.535157 3.820313-8.535157 8.535156 0 4.710938 3.820313 8.53125 8.535157 8.53125zm0 0" style="fill: rgb(255, 255, 255); stroke: rgb(255, 255, 255);"></path>
<path class="white" d="m366.933594 341.332031h25.601562c4.710938 0 8.53125-3.820312 8.53125-8.53125 0-4.714843-3.820312-8.535156-8.53125-8.535156h-25.601562c-4.714844 0-8.535156 3.820313-8.535156 8.535156 0 4.710938 3.820312 8.53125 8.535156 8.53125zm0 0" style="fill: rgb(255, 255, 255); stroke: rgb(255, 255, 255);"></path>
<path class="white" d="m375.46875 366.933594c0 4.710937 3.820312 8.535156 8.53125 8.535156h51.199219c4.714843 0 8.535156-3.824219 8.535156-8.535156 0-4.710938-3.820313-8.535156-8.535156-8.535156h-51.199219c-4.710938 0-8.53125 3.824218-8.53125 8.535156zm0 0" style="fill: rgb(255, 255, 255); stroke: rgb(255, 255, 255);"></path>
<path class="white" d="m324.265625 375.46875h25.601563c4.710937 0 8.53125-3.824219 8.53125-8.535156 0-4.710938-3.820313-8.535156-8.53125-8.535156h-25.601563c-4.710937 0-8.53125 3.824218-8.53125 8.535156 0 4.710937 3.820313 8.535156 8.53125 8.535156zm0 0" style="fill: rgb(255, 255, 255); stroke: rgb(255, 255, 255);"></path>
<path class="white" d="m435.199219 392.535156h-17.066407c-4.710937 0-8.53125 3.820313-8.53125 8.53125 0 4.714844 3.820313 8.535156 8.53125 8.535156h17.066407c4.714843 0 8.535156-3.820312 8.535156-8.535156 0-4.710937-3.820313-8.53125-8.535156-8.53125zm0 0" style="fill: rgb(255, 255, 255); stroke: rgb(255, 255, 255);"></path>
<path class="white" d="m298.667969 409.601562h85.332031c4.714844 0 8.535156-3.820312 8.535156-8.535156 0-4.710937-3.820312-8.53125-8.535156-8.53125h-85.332031c-4.714844 0-8.535157 3.820313-8.535157 8.53125 0 4.714844 3.820313 8.535156 8.535157 8.535156zm0 0" style="fill: rgb(255, 255, 255); stroke: rgb(255, 255, 255);"></path></svg>